<?xml version="1.0" standalone="no"?>
<!DOCTYPE svg PUBLIC "-//W3C//DTD SVG 20010904//EN"
 "http://www.w3.org/TR/2001/REC-SVG-20010904/DTD/svg10.dtd">
<svg version="1.0" xmlns="http://www.w3.org/2000/svg"
 width="512.000000pt" height="512.000000pt" viewBox="0 0 512.000000 512.000000"
 preserveAspectRatio="xMidYMid meet">
<g transform="translate(0.000000,512.000000) scale(0.100000,-0.100000)"
fill="#000000" stroke="none">
<path d="M0 2560 l0 -2560 2560 0 2560 0 0 2560 0 2560 -2560 0 -2560 0 0
-2560z m2090 1695 l0 -375 -375 0 -375 0 0 375 0 375 375 0 375 0 0 -375z
m840 0 l0 -375 -375 0 -375 0 0 368 c0 203 3 372 7 375 3 4 172 7 375 7 l368
0 0 -375z m-840 -850 l0 -375 -375 0 -375 0 0 375 0 375 375 0 375 0 0 -375z
m1690 0 l0 -375 -375 0 -375 0 0 375 0 375 375 0 375 0 0 -375z m-1690 -840
l0 -375 -375 0 -375 0 0 375 0 375 375 0 375 0 0 -375z m840 0 l0 -375 -375 0
-375 0 0 368 c0 203 3 372 7 375 3 4 172 7 375 7 l368 0 0 -375z m-840 -850
l0 -375 -375 0 -375 0 0 375 0 375 375 0 375 0 0 -375z m1690 0 l0 -375 -375
0 -375 0 0 375 0 375 375 0 375 0 0 -375z m-1690 -840 l0 -375 -375 0 -375 0
0 375 0 375 375 0 375 0 0 -375z m840 0 l0 -375 -375 0 -375 0 0 368 c0 203 3
372 7 375 3 4 172 7 375 7 l368 0 0 -375z"/>
</g>
</svg>
